<mxfile host="app.diagrams.net" modified="2024-07-15T07:41:59.968Z" agent="Mozilla/5.0 (Windows NT 10.0; Win64; x64) AppleWebKit/537.36 (KHTML, like Gecko) Chrome/126.0.0.0 Safari/537.36" version="24.6.5" etag="1BFKe-lvFc6ntIf2Ww7D" type="github">
  <diagram name="Page-1" id="fZiYO97wwFvcHQcRd1fn">
    <mxGraphModel>
      <root>
        <mxCell id="0" />
        <mxCell id="1" parent="0" />
      </root>
    </mxGraphModel>
  </diagram>
</mxfile>
